<svg width="64" height="64" viewBox="0 0 64 64" fill="none" xmlns="http://www.w3.org/2000/svg">
<path d="M32 0C23.5131 0 15.3737 3.37142 9.37258 9.37258C3.37142 15.3737 0 23.5131 0 32C0 40.4869 3.37142 48.6263 9.37258 54.6274C15.3737 60.6286 23.5131 64 32 64C40.4869 64 48.6263 60.6286 54.6274 54.6274C60.6286 48.6263 64 40.4869 64 32C64 23.5131 60.6286 15.3737 54.6274 9.37258C48.6263 3.37142 40.4869 0 32 0ZM25.136 18.9867C26.9476 18.9976 28.7418 19.3411 30.4293 20V23.1493C28.5956 22.1304 26.5269 21.61 24.4293 21.64C23.1234 21.5966 21.8232 21.8327 20.616 22.3327C19.4087 22.8326 18.3223 23.5847 17.4293 24.5387C15.5575 26.6733 14.5897 29.4524 14.7307 32.288C14.5911 34.9695 15.4941 37.6011 17.2507 39.632C18.0924 40.5365 19.1195 41.2486 20.2618 41.7194C21.4042 42.1902 22.6347 42.4087 23.8693 42.36C26.174 42.4173 28.4492 41.8319 30.44 40.6693L30.4293 43.5493C28.2524 44.6085 25.8487 45.1167 23.4293 45.0293C21.8309 45.0993 20.236 44.827 18.7515 44.2305C17.2669 43.634 15.9269 42.7271 14.8213 41.5707C12.5978 39.079 11.4377 35.8161 11.5893 32.48C11.5121 30.6912 11.7945 28.905 12.4197 27.2272C13.0449 25.5494 14.0003 24.0141 15.2293 22.712C16.4299 21.4831 17.8737 20.5182 19.4684 19.879C21.0631 19.2399 22.7737 18.9405 24.4907 19C24.5973 18.9953 24.704 18.9917 24.8107 18.9893C24.9191 18.9881 25.0276 18.9855 25.136 18.9867ZM40.7707 19.4H43L41.52 26.472H45.9493L47.4613 19.4H49.6213L48.1413 26.472L52.76 26.4613L52.36 28.32H47.76L46.6613 33.6H51.6L51.1307 35.4613H46.288L44.7413 42.4613H42.528L44.04 35.4613H39.64L38.16 42.4613H36L37.48 35.4613H32.84L33.1893 33.6H37.8507L38.92 28.3307H34.0507L34.4187 26.472H39.288L40.7707 19.4ZM41.1493 28.32L40 33.6H44.4613L45.5893 28.32H41.1493Z" fill="#56575A"/>
<path d="M32 0C23.5131 0 15.3737 3.37142 9.37258 9.37258C3.37142 15.3737 0 23.5131 0 32C0 40.4869 3.37142 48.6263 9.37258 54.6274C15.3737 60.6286 23.5131 64 32 64C40.4869 64 48.6263 60.6286 54.6274 54.6274C60.6286 48.6263 64 40.4869 64 32C64 23.5131 60.6286 15.3737 54.6274 9.37258C48.6263 3.37142 40.4869 0 32 0ZM25.136 18.9867C26.9476 18.9976 28.7418 19.3411 30.4293 20V23.1493C28.5956 22.1304 26.5269 21.61 24.4293 21.64C23.1234 21.5966 21.8232 21.8327 20.616 22.3327C19.4087 22.8326 18.3223 23.5847 17.4293 24.5387C15.5575 26.6733 14.5897 29.4524 14.7307 32.288C14.5911 34.9695 15.4941 37.6011 17.2507 39.632C18.0924 40.5365 19.1195 41.2486 20.2618 41.7194C21.4042 42.1902 22.6347 42.4087 23.8693 42.36C26.174 42.4173 28.4492 41.8319 30.44 40.6693L30.4293 43.5493C28.2524 44.6085 25.8487 45.1167 23.4293 45.0293C21.8309 45.0993 20.236 44.827 18.7515 44.2305C17.2669 43.634 15.9269 42.7271 14.8213 41.5707C12.5978 39.079 11.4377 35.8161 11.5893 32.48C11.5121 30.6912 11.7945 28.905 12.4197 27.2272C13.0449 25.5494 14.0003 24.0141 15.2293 22.712C16.4299 21.4831 17.8737 20.5182 19.4684 19.879C21.0631 19.2399 22.7737 18.9405 24.4907 19C24.5973 18.9953 24.704 18.9917 24.8107 18.9893C24.9191 18.9881 25.0276 18.9855 25.136 18.9867ZM40.7707 19.4H43L41.52 26.472H45.9493L47.4613 19.4H49.6213L48.1413 26.472L52.76 26.4613L52.36 28.32H47.76L46.6613 33.6H51.6L51.1307 35.4613H46.288L44.7413 42.4613H42.528L44.04 35.4613H39.64L38.16 42.4613H36L37.48 35.4613H32.84L33.1893 33.6H37.8507L38.92 28.3307H34.0507L34.4187 26.472H39.288L40.7707 19.4ZM41.1493 28.32L40 33.6H44.4613L45.5893 28.32H41.1493Z" fill="#C7C8C9"/>
</svg>
