<svg width="64" height="58" viewBox="0 0 64 58" fill="none" xmlns="http://www.w3.org/2000/svg">
<path d="M9.39286 0H63.1429L53.6429 47.6071L24.9286 57.1429L0 47.6071L2.53571 34.8929H13.1429L12.1071 40.1429L27.1786 45.8929L44.5357 40.1429L46.9643 28.0357H3.82143L5.89286 17.4286H49.0714L50.4286 10.6071H7.28571L9.39286 0Z" fill="#56575A"/>
<path d="M9.39286 0H63.1429L53.6429 47.6071L24.9286 57.1429L0 47.6071L2.53571 34.8929H13.1429L12.1071 40.1429L27.1786 45.8929L44.5357 40.1429L46.9643 28.0357H3.82143L5.89286 17.4286H49.0714L50.4286 10.6071H7.28571L9.39286 0Z" fill="#C7C8C9"/>
</svg>
