<svg width="381" height="516" viewBox="0 0 381 516" fill="none" xmlns="http://www.w3.org/2000/svg">
<path d="M0 416.031L3.1626 411.661L152.769 131.59L153.085 128.625L87.1351 6.4068C81.6098 -3.83119 66.0549 -1.24267 64.2416 10.218L0 416.031Z" fill="#56575A"/>
<path d="M0 416.031L3.1626 411.661L152.769 131.59L153.085 128.625L87.1351 6.4068C81.6098 -3.83119 66.0549 -1.24267 64.2416 10.218L0 416.031Z" fill="#C7C8C9"/>
<path d="M1.8667 412.7L4.25911 408.097L152.298 130.96L86.5131 8.24454C81.0457 -1.88619 67.1618 0.696344 65.3675 12.0369L1.8667 412.7Z" fill="#56575A"/>
<path d="M1.8667 412.7L4.25911 408.097L152.298 130.96L86.5131 8.24454C81.0457 -1.88619 67.1618 0.696344 65.3675 12.0369L1.8667 412.7Z" fill="#C7C8C9"/>
<g filter="url(#filter0_i_115_385)">
<path d="M1.8667 412.7L4.25911 408.097L152.298 130.96L86.5131 8.24454C81.0457 -1.88619 67.1618 0.696344 65.3675 12.0369L1.8667 412.7Z" fill="#56575A"/>
<path d="M1.8667 412.7L4.25911 408.097L152.298 130.96L86.5131 8.24454C81.0457 -1.88619 67.1618 0.696344 65.3675 12.0369L1.8667 412.7Z" fill="#C7C8C9"/>
</g>
<path d="M201.161 221.072L250.266 171.455L201.147 78.9426C196.484 70.1856 183.466 70.1603 178.852 78.9426L152.61 128.321V132.526L201.161 221.072Z" fill="#56575A"/>
<path d="M201.161 221.072L250.266 171.455L201.147 78.9426C196.484 70.1856 183.466 70.1603 178.852 78.9426L152.61 128.321V132.526L201.161 221.072Z" fill="#C7C8C9"/>
<path d="M200.285 219.005L248.024 170.768L200.285 81.0821C195.752 72.5687 184.74 71.6767 180.255 80.2147L153.873 130.358L153.085 132.922L200.285 219.005Z" fill="#56575A"/>
<path d="M200.285 219.005L248.024 170.768L200.285 81.0821C195.752 72.5687 184.74 71.6767 180.255 80.2147L153.873 130.358L153.085 132.922L200.285 219.005Z" fill="#C7C8C9"/>
<g filter="url(#filter1_i_115_385)">
<path d="M200.285 219.005L248.024 170.768L200.285 81.0821C195.752 72.5687 184.74 71.6767 180.255 80.2147L153.873 130.358L153.085 132.922L200.285 219.005Z" fill="#56575A"/>
<path d="M200.285 219.005L248.024 170.768L200.285 81.0821C195.752 72.5687 184.74 71.6767 180.255 80.2147L153.873 130.358L153.085 132.922L200.285 219.005Z" fill="#C7C8C9"/>
</g>
<path d="M0 416.031L1.43355 414.609L6.64212 412.52L198.077 224.349L200.503 217.835L152.747 128.052L0 416.031Z" fill="#56575A"/>
<path d="M0 416.031L1.43355 414.609L6.64212 412.52L198.077 224.349L200.503 217.835L152.747 128.052L0 416.031Z" fill="#C7C8C9"/>
<path d="M207.294 510.93L380.547 415.599L331.072 114.974C329.524 105.569 317.829 101.85 311.005 108.594L0.000488281 416.031L172.26 510.922C183.146 516.919 196.405 516.922 207.294 510.93Z" fill="#56575A"/>
<path d="M207.294 510.93L380.547 415.599L331.072 114.974C329.524 105.569 317.829 101.85 311.005 108.594L0.000488281 416.031L172.26 510.922C183.146 516.919 196.405 516.922 207.294 510.93Z" fill="#C7C8C9"/>
<path d="M378.995 414.799L329.895 116.457C328.359 107.123 318.633 103.26 311.862 109.953L1.92139 415.447L172.289 509.399C183.093 515.35 196.251 515.353 207.057 509.407L378.995 414.799Z" fill="#56575A"/>
<path d="M378.995 414.799L329.895 116.457C328.359 107.123 318.633 103.26 311.862 109.953L1.92139 415.447L172.289 509.399C183.093 515.35 196.251 515.353 207.057 509.407L378.995 414.799Z" fill="#C7C8C9"/>
<path d="M207.294 508.122C196.405 514.113 183.146 514.11 172.26 508.113L1.38769 414.586L0.000244141 416.031L172.26 510.922C183.146 516.919 196.405 516.922 207.294 510.93L380.547 415.599L380.123 413.023L207.294 508.122Z" fill="#56575A"/>
<path d="M207.294 508.122C196.405 514.113 183.146 514.11 172.26 508.113L1.38769 414.586L0.000244141 416.031L172.26 510.922C183.146 516.919 196.405 516.922 207.294 510.93L380.547 415.599L380.123 413.023L207.294 508.122Z" fill="#C7C8C9"/>
<defs>
<filter id="filter0_i_115_385" x="1.8667" y="1.91313" width="150.431" height="410.786" filterUnits="userSpaceOnUse" color-interpolation-filters="sRGB">
<feFlood flood-opacity="0" result="BackgroundImageFix"/>
<feBlend mode="normal" in="SourceGraphic" in2="BackgroundImageFix" result="shape"/>
<feColorMatrix in="SourceAlpha" type="matrix" values="0 0 0 0 0 0 0 0 0 0 0 0 0 0 0 0 0 0 127 0" result="hardAlpha"/>
<feOffset/>
<feGaussianBlur stdDeviation="39.886"/>
<feComposite in2="hardAlpha" operator="arithmetic" k2="-1" k3="1"/>
<feColorMatrix type="matrix" values="0 0 0 0 0 0 0 0 0 0 0 0 0 0 0 0 0 0 0.06 0"/>
<feBlend mode="normal" in2="shape" result="effect1_innerShadow_115_385"/>
</filter>
<filter id="filter1_i_115_385" x="153.085" y="58.2827" width="97.2184" height="160.722" filterUnits="userSpaceOnUse" color-interpolation-filters="sRGB">
<feFlood flood-opacity="0" result="BackgroundImageFix"/>
<feBlend mode="normal" in="SourceGraphic" in2="BackgroundImageFix" result="shape"/>
<feColorMatrix in="SourceAlpha" type="matrix" values="0 0 0 0 0 0 0 0 0 0 0 0 0 0 0 0 0 0 127 0" result="hardAlpha"/>
<feOffset dx="2.2792" dy="-20.5128"/>
<feGaussianBlur stdDeviation="7.97721"/>
<feComposite in2="hardAlpha" operator="arithmetic" k2="-1" k3="1"/>
<feColorMatrix type="matrix" values="0 0 0 0 0 0 0 0 0 0 0 0 0 0 0 0 0 0 0.09 0"/>
<feBlend mode="normal" in2="shape" result="effect1_innerShadow_115_385"/>
</filter>
</defs>
</svg>
