<svg width="57" height="64" viewBox="0 0 57 64" fill="none" xmlns="http://www.w3.org/2000/svg">
<path d="M45.8802 18.76L46.5202 11.76H11.1602L13.0402 33.12H37.5202L36.6402 42.24L28.7602 44.36L20.9202 42.24L20.4002 36.64H13.4002L14.2802 47.76L28.7602 51.76H28.9202V51.72L43.2802 47.76L45.2802 26H19.5202L18.9202 18.76H45.8802ZM0.680176 0H57.0002L51.8802 57.52L28.7602 64L5.80018 57.52L0.680176 0Z" fill="#56575A"/>
<path d="M45.8802 18.76L46.5202 11.76H11.1602L13.0402 33.12H37.5202L36.6402 42.24L28.7602 44.36L20.9202 42.24L20.4002 36.64H13.4002L14.2802 47.76L28.7602 51.76H28.9202V51.72L43.2802 47.76L45.2802 26H19.5202L18.9202 18.76H45.8802ZM0.680176 0H57.0002L51.8802 57.52L28.7602 64L5.80018 57.52L0.680176 0Z" fill="#C7C8C9"/>
</svg>
