<svg width="64" height="64" viewBox="0 0 64 64" fill="none" xmlns="http://www.w3.org/2000/svg">
<path d="M52.275 20.74C51.6 20.4828 50.925 20.24 50.25 20.0114C50.3625 19.4829 50.4625 18.9543 50.5625 18.4258C52.1 9.91197 51.0875 3.06948 47.675 0.812456C44.3875 -1.34457 39.025 0.898166 33.6 6.29788C33.0625 6.82642 32.5375 7.38353 32.0375 7.94065C31.7 7.56924 31.35 7.19783 31 6.84071C25.3125 1.06959 19.6125 -1.35886 16.2 0.912451C12.925 3.08376 11.95 9.52628 13.325 17.583C13.4625 18.3829 13.6125 19.1686 13.7875 19.9686C12.9875 20.2257 12.2 20.5114 11.4625 20.8114C4.7875 23.4541 0 27.6253 0 31.9394C0 36.3963 5.1 40.8675 12.0375 43.5816C12.6 43.7959 13.1625 44.0101 13.7375 44.1959C13.55 45.053 13.3875 45.8958 13.2375 46.7671C11.925 54.6953 12.95 60.9807 16.225 63.1377C19.6 65.3662 25.275 63.0806 30.8 57.5523C31.2375 57.1094 31.675 56.6523 32.1125 56.1666C32.6625 56.7809 33.2375 57.3666 33.8125 57.938C39.1625 63.1948 44.45 65.3233 47.7125 63.1663C51.0875 60.9378 52.1875 54.181 50.7625 45.9529C50.65 45.3244 50.525 44.6815 50.3875 44.0244C50.7875 43.8959 51.175 43.753 51.5625 43.6102C58.775 40.8817 64 36.4677 64 31.9394C64 27.611 59.075 23.4112 52.275 20.74ZM35.3625 8.61204C40.0125 3.98372 44.35 2.16953 46.325 3.46946C48.4375 4.8551 49.25 10.4548 47.925 17.8115C47.8375 18.2972 47.75 18.7686 47.6375 19.24C44.8625 18.5258 42.05 18.0115 39.225 17.7258C37.6 15.0688 35.825 12.5261 33.9 10.1405C34.3875 9.61199 34.8625 9.11201 35.3625 8.61204ZM20.9 39.3533C21.5375 40.596 22.1875 41.8388 22.875 43.0531C20.925 42.8102 18.9875 42.4531 17.075 41.9817C17.625 39.9247 18.3125 37.7962 19.1125 35.6249C19.6875 36.882 20.275 38.1247 20.9 39.3533ZM17.1125 22.1685C18.9125 21.7113 20.825 21.3399 22.8125 21.0542C22.15 22.2399 21.5 23.4541 20.8875 24.6826C20.275 25.8968 19.675 27.1396 19.1125 28.3967C18.325 26.2682 17.6625 24.1826 17.1125 22.1685ZM20.5375 32.0108C21.3625 30.0395 22.2625 28.111 23.2125 26.2111C24.1625 24.3112 25.1875 22.4684 26.2625 20.6543C28.1375 20.4971 30.05 20.4114 32 20.4114C33.95 20.4114 35.875 20.4971 37.7375 20.6543C38.8 22.4542 39.8125 24.2969 40.775 26.1825C41.7375 28.0681 42.6375 29.9966 43.4875 31.9536C42.65 33.925 41.75 35.8677 40.7875 37.7819C39.8375 39.6818 38.825 41.5246 37.7625 43.353C35.9 43.5102 33.9625 43.5816 32 43.5816C30.0375 43.5816 28.1375 43.5102 26.3 43.3816C25.2125 41.5674 24.1875 39.7104 23.225 37.8105C22.2625 35.9106 21.375 33.9821 20.5375 32.0108ZM43.1125 39.3247C43.75 38.0676 44.35 36.7962 44.9375 35.5106C45.7375 37.5819 46.4375 39.6818 47.05 41.8388C45.1125 42.3388 43.15 42.7245 41.175 42.9816C41.85 41.7817 42.4875 40.5532 43.1125 39.3247ZM44.9125 28.3967C44.325 27.1396 43.725 25.8825 43.1 24.654C42.4875 23.4398 41.85 22.2399 41.1875 21.0542C43.2 21.3399 45.125 21.7256 46.925 22.197C46.35 24.3112 45.675 26.3682 44.9125 28.3967ZM32.025 12.3261C33.3375 13.9546 34.575 15.6688 35.725 17.4401C33.25 17.3116 30.7625 17.3116 28.2875 17.4401C29.5125 15.5974 30.775 13.8832 32.025 12.3261ZM17.525 3.56945C19.625 2.16953 24.2875 4.16942 29.2 9.14058C29.5125 9.45485 29.825 9.79769 30.15 10.1405C28.2125 12.5261 26.425 15.0688 24.7875 17.7258C21.9625 18.0115 19.1625 18.5115 16.3875 19.2115C16.225 18.4829 16.0875 17.7401 15.95 16.9973C14.775 10.0834 15.55 4.86938 17.525 3.56945ZM14.4625 41.2246C13.9375 41.0532 13.425 40.8675 12.9125 40.6675C10.25 39.7104 7.225 38.1962 5.0375 36.2106C3.775 35.2106 2.925 33.6678 2.6875 31.9394C2.6875 29.3252 6.6375 25.9825 12.3375 23.7112C13.05 23.4255 13.775 23.1684 14.5 22.9256C15.35 26.0254 16.375 29.0681 17.5625 32.0108C16.3625 34.9963 15.325 38.0819 14.4625 41.2246ZM29.0375 55.2238C26.975 57.3809 24.5875 59.0951 21.9875 60.2664C20.6 61.0235 19 61.095 17.575 60.4521C15.5875 59.1379 14.7625 54.0953 15.8875 47.31C16.025 46.51 16.175 45.7101 16.35 44.9244C19.15 45.6101 21.975 46.0815 24.8375 46.3243C26.4875 48.9956 28.3 51.5526 30.2375 53.9525C29.8375 54.3953 29.4375 54.8239 29.0375 55.2238ZM32.1 51.7526C30.825 50.1812 29.55 48.4385 28.3125 46.5672C29.5125 46.6243 30.75 46.6529 32 46.6529C33.2875 46.6529 34.55 46.6243 35.8 46.5529C34.65 48.3671 33.4125 50.0955 32.1 51.7526ZM48.4375 56.0381C48.325 57.7808 47.575 59.4093 46.375 60.5093C44.3875 61.8235 40.15 60.1093 35.575 55.6238C35.05 55.1096 34.525 54.5524 33.9875 53.981C35.9 51.5669 37.6625 49.0099 39.2625 46.3243C42.125 46.0529 44.975 45.5529 47.7875 44.8244C47.9125 45.4101 48.025 45.9958 48.125 46.5672C48.7375 49.6527 48.8375 52.8668 48.4375 56.0381ZM50.7125 40.6818C50.3625 40.8103 50.0125 40.9389 49.65 41.0532C48.775 37.939 47.7 34.8964 46.4625 31.9394C47.6625 29.0252 48.675 26.0254 49.525 22.9541C50.175 23.1684 50.8 23.397 51.4 23.6255C57.225 25.9111 61.3125 29.3109 61.3125 31.9108C61.3125 34.7106 56.95 38.3247 50.7125 40.6818ZM32 38.539C35.1625 38.539 37.725 35.6106 37.725 31.9965C37.725 28.3824 35.1625 25.454 32 25.454C28.8375 25.454 26.275 28.3824 26.275 31.9965C26.275 35.6106 28.8375 38.539 32 38.539Z" fill="#56575A"/>
<path d="M52.275 20.74C51.6 20.4828 50.925 20.24 50.25 20.0114C50.3625 19.4829 50.4625 18.9543 50.5625 18.4258C52.1 9.91197 51.0875 3.06948 47.675 0.812456C44.3875 -1.34457 39.025 0.898166 33.6 6.29788C33.0625 6.82642 32.5375 7.38353 32.0375 7.94065C31.7 7.56924 31.35 7.19783 31 6.84071C25.3125 1.06959 19.6125 -1.35886 16.2 0.912451C12.925 3.08376 11.95 9.52628 13.325 17.583C13.4625 18.3829 13.6125 19.1686 13.7875 19.9686C12.9875 20.2257 12.2 20.5114 11.4625 20.8114C4.7875 23.4541 0 27.6253 0 31.9394C0 36.3963 5.1 40.8675 12.0375 43.5816C12.6 43.7959 13.1625 44.0101 13.7375 44.1959C13.55 45.053 13.3875 45.8958 13.2375 46.7671C11.925 54.6953 12.95 60.9807 16.225 63.1377C19.6 65.3662 25.275 63.0806 30.8 57.5523C31.2375 57.1094 31.675 56.6523 32.1125 56.1666C32.6625 56.7809 33.2375 57.3666 33.8125 57.938C39.1625 63.1948 44.45 65.3233 47.7125 63.1663C51.0875 60.9378 52.1875 54.181 50.7625 45.9529C50.65 45.3244 50.525 44.6815 50.3875 44.0244C50.7875 43.8959 51.175 43.753 51.5625 43.6102C58.775 40.8817 64 36.4677 64 31.9394C64 27.611 59.075 23.4112 52.275 20.74ZM35.3625 8.61204C40.0125 3.98372 44.35 2.16953 46.325 3.46946C48.4375 4.8551 49.25 10.4548 47.925 17.8115C47.8375 18.2972 47.75 18.7686 47.6375 19.24C44.8625 18.5258 42.05 18.0115 39.225 17.7258C37.6 15.0688 35.825 12.5261 33.9 10.1405C34.3875 9.61199 34.8625 9.11201 35.3625 8.61204ZM20.9 39.3533C21.5375 40.596 22.1875 41.8388 22.875 43.0531C20.925 42.8102 18.9875 42.4531 17.075 41.9817C17.625 39.9247 18.3125 37.7962 19.1125 35.6249C19.6875 36.882 20.275 38.1247 20.9 39.3533ZM17.1125 22.1685C18.9125 21.7113 20.825 21.3399 22.8125 21.0542C22.15 22.2399 21.5 23.4541 20.8875 24.6826C20.275 25.8968 19.675 27.1396 19.1125 28.3967C18.325 26.2682 17.6625 24.1826 17.1125 22.1685ZM20.5375 32.0108C21.3625 30.0395 22.2625 28.111 23.2125 26.2111C24.1625 24.3112 25.1875 22.4684 26.2625 20.6543C28.1375 20.4971 30.05 20.4114 32 20.4114C33.95 20.4114 35.875 20.4971 37.7375 20.6543C38.8 22.4542 39.8125 24.2969 40.775 26.1825C41.7375 28.0681 42.6375 29.9966 43.4875 31.9536C42.65 33.925 41.75 35.8677 40.7875 37.7819C39.8375 39.6818 38.825 41.5246 37.7625 43.353C35.9 43.5102 33.9625 43.5816 32 43.5816C30.0375 43.5816 28.1375 43.5102 26.3 43.3816C25.2125 41.5674 24.1875 39.7104 23.225 37.8105C22.2625 35.9106 21.375 33.9821 20.5375 32.0108ZM43.1125 39.3247C43.75 38.0676 44.35 36.7962 44.9375 35.5106C45.7375 37.5819 46.4375 39.6818 47.05 41.8388C45.1125 42.3388 43.15 42.7245 41.175 42.9816C41.85 41.7817 42.4875 40.5532 43.1125 39.3247ZM44.9125 28.3967C44.325 27.1396 43.725 25.8825 43.1 24.654C42.4875 23.4398 41.85 22.2399 41.1875 21.0542C43.2 21.3399 45.125 21.7256 46.925 22.197C46.35 24.3112 45.675 26.3682 44.9125 28.3967ZM32.025 12.3261C33.3375 13.9546 34.575 15.6688 35.725 17.4401C33.25 17.3116 30.7625 17.3116 28.2875 17.4401C29.5125 15.5974 30.775 13.8832 32.025 12.3261ZM17.525 3.56945C19.625 2.16953 24.2875 4.16942 29.2 9.14058C29.5125 9.45485 29.825 9.79769 30.15 10.1405C28.2125 12.5261 26.425 15.0688 24.7875 17.7258C21.9625 18.0115 19.1625 18.5115 16.3875 19.2115C16.225 18.4829 16.0875 17.7401 15.95 16.9973C14.775 10.0834 15.55 4.86938 17.525 3.56945ZM14.4625 41.2246C13.9375 41.0532 13.425 40.8675 12.9125 40.6675C10.25 39.7104 7.225 38.1962 5.0375 36.2106C3.775 35.2106 2.925 33.6678 2.6875 31.9394C2.6875 29.3252 6.6375 25.9825 12.3375 23.7112C13.05 23.4255 13.775 23.1684 14.5 22.9256C15.35 26.0254 16.375 29.0681 17.5625 32.0108C16.3625 34.9963 15.325 38.0819 14.4625 41.2246ZM29.0375 55.2238C26.975 57.3809 24.5875 59.0951 21.9875 60.2664C20.6 61.0235 19 61.095 17.575 60.4521C15.5875 59.1379 14.7625 54.0953 15.8875 47.31C16.025 46.51 16.175 45.7101 16.35 44.9244C19.15 45.6101 21.975 46.0815 24.8375 46.3243C26.4875 48.9956 28.3 51.5526 30.2375 53.9525C29.8375 54.3953 29.4375 54.8239 29.0375 55.2238ZM32.1 51.7526C30.825 50.1812 29.55 48.4385 28.3125 46.5672C29.5125 46.6243 30.75 46.6529 32 46.6529C33.2875 46.6529 34.55 46.6243 35.8 46.5529C34.65 48.3671 33.4125 50.0955 32.1 51.7526ZM48.4375 56.0381C48.325 57.7808 47.575 59.4093 46.375 60.5093C44.3875 61.8235 40.15 60.1093 35.575 55.6238C35.05 55.1096 34.525 54.5524 33.9875 53.981C35.9 51.5669 37.6625 49.0099 39.2625 46.3243C42.125 46.0529 44.975 45.5529 47.7875 44.8244C47.9125 45.4101 48.025 45.9958 48.125 46.5672C48.7375 49.6527 48.8375 52.8668 48.4375 56.0381ZM50.7125 40.6818C50.3625 40.8103 50.0125 40.9389 49.65 41.0532C48.775 37.939 47.7 34.8964 46.4625 31.9394C47.6625 29.0252 48.675 26.0254 49.525 22.9541C50.175 23.1684 50.8 23.397 51.4 23.6255C57.225 25.9111 61.3125 29.3109 61.3125 31.9108C61.3125 34.7106 56.95 38.3247 50.7125 40.6818ZM32 38.539C35.1625 38.539 37.725 35.6106 37.725 31.9965C37.725 28.3824 35.1625 25.454 32 25.454C28.8375 25.454 26.275 28.3824 26.275 31.9965C26.275 35.6106 28.8375 38.539 32 38.539Z" fill="#C7C8C9"/>
</svg>
